<svg width="32" height="32" viewBox="0 0 32 32" fill="none" xmlns="http://www.w3.org/2000/svg">
<path d="M8.49998 1H5.5C5.5 1 4 1 2.5 2.5C1 4 1 6.25 1 6.25L1 8.5M8.49998 1H23.5M8.49998 1V8.5M8.49998 31H7C7 31 4.00001 31 2.5 29.5C0.99999 28 1 25 1 25L1 23.5M8.49998 31H23.5M8.49998 31V23.5M23.5 1H25.75C25.75 1 28 1 29.5 2.5C30.6153 3.6153 31 6.25 31 6.25C31 6.62786 31 7.42878 31 8.5M23.5 1V8.5M23.5 31H25C25 31 27.25 31 29.0888 29.2517C31 27.4346 31 25.75 31 25.75C31 25.75 31 24.8778 31 23.5M23.5 31V23.5M31 8.5H23.5M31 8.5C31 10.4233 31 13.2181 31 16M23.5 8.5V23.5M31 16H1M31 16C31 18.8201 31 21.6271 31 23.5M1 16V8.5M1 16V23.5M31 23.5H23.5M8.49998 8.5H1M8.49998 8.5V23.5M8.49998 23.5H1" stroke="#B56605" stroke-width="2"/>
</svg>
