<svg width="22" height="22" viewBox="0 0 22 22" fill="none" xmlns="http://www.w3.org/2000/svg">
<path d="M5.99998 1H4C4 1 3 1 2 2C1 3 1 4.5 1 4.5L1 6M5.99998 1H16M5.99998 1V6M5.99998 21H5C5 21 3.00001 21 2 20C0.999993 19 1 17 1 17L1 16M5.99998 21H16M5.99998 21V16M16 1H17.5C17.5 1 19 1 20 2C20.7435 2.74354 21 4.5 21 4.5C21 4.75191 21 5.28585 21 6M16 1V6M16 21H17C17 21 18.5 21 19.7259 19.8345C21 18.6231 21 17.5 21 17.5C21 17.5 21 16.9185 21 16M16 21V16M21 6H16M21 6C21 7.28223 21 9.14537 21 11M16 6V16M21 11H1M21 11C21 12.8801 21 14.7514 21 16M1 11V6M1 11V16M21 16H16M5.99998 6H1M5.99998 6V16M5.99998 16H1" stroke="white"/>
</svg>
