<svg width="23" height="30" viewBox="0 0 23 30" fill="none" xmlns="http://www.w3.org/2000/svg">
<path d="M22.6631 6.68423L16.3381 0.338077C16.1219 0.121154 15.8297 0 15.525 0H2.3C1.02925 0 0 1.03269 0 2.30769V27.6923C0 28.9673 1.02925 30 2.3 30H20.7C21.9707 30 23 28.9673 23 27.6923V7.5C23 7.19423 22.8793 6.90115 22.6631 6.68423ZM13.8 24.2308H5.75C5.1152 24.2308 4.6 23.7138 4.6 23.0769C4.6 22.44 5.1152 21.9231 5.75 21.9231H13.8C14.4348 21.9231 14.95 22.44 14.95 23.0769C14.95 23.7138 14.4348 24.2308 13.8 24.2308ZM17.25 19.6154H5.75C5.1152 19.6154 4.6 19.0985 4.6 18.4615C4.6 17.8246 5.1152 17.3077 5.75 17.3077H17.25C17.8848 17.3077 18.4 17.8246 18.4 18.4615C18.4 19.0985 17.8848 19.6154 17.25 19.6154ZM17.25 15H5.75C5.1152 15 4.6 14.4831 4.6 13.8462C4.6 13.2092 5.1152 12.6923 5.75 12.6923H17.25C17.8848 12.6923 18.4 13.2092 18.4 13.8462C18.4 14.4831 17.8848 15 17.25 15ZM16.1 8.07692C15.4652 8.07692 14.95 7.56 14.95 6.92308V2.19692L20.8104 8.07692H16.1Z" fill="#B56605"/>
</svg>
