<svg width="18" height="23" viewBox="0 0 18 23" fill="none" xmlns="http://www.w3.org/2000/svg">
<path d="M17.7363 5.12458L12.7863 0.259192C12.6171 0.0928846 12.3885 0 12.15 0H1.8C0.8055 0 0 0.791731 0 1.76923V21.2308C0 22.2083 0.8055 23 1.8 23H16.2C17.1945 23 18 22.2083 18 21.2308V5.75C18 5.51558 17.9055 5.29088 17.7363 5.12458ZM10.8 18.5769H4.5C4.0032 18.5769 3.6 18.1806 3.6 17.6923C3.6 17.204 4.0032 16.8077 4.5 16.8077H10.8C11.2968 16.8077 11.7 17.204 11.7 17.6923C11.7 18.1806 11.2968 18.5769 10.8 18.5769ZM13.5 15.0385H4.5C4.0032 15.0385 3.6 14.6422 3.6 14.1538C3.6 13.6655 4.0032 13.2692 4.5 13.2692H13.5C13.9968 13.2692 14.4 13.6655 14.4 14.1538C14.4 14.6422 13.9968 15.0385 13.5 15.0385ZM13.5 11.5H4.5C4.0032 11.5 3.6 11.1037 3.6 10.6154C3.6 10.1271 4.0032 9.73077 4.5 9.73077H13.5C13.9968 9.73077 14.4 10.1271 14.4 10.6154C14.4 11.1037 13.9968 11.5 13.5 11.5ZM12.6 6.19231C12.1032 6.19231 11.7 5.796 11.7 5.30769V1.68431L16.2864 6.19231H12.6Z" fill="white"/>
</svg>
